<svg width="40" height="33" viewBox="0 0 40 33" fill="none" xmlns="http://www.w3.org/2000/svg" style="">
<mask id="path-1-inside-1" fill="white">
<path d="M15.4531 17.6016C13.8594 18.8672 12.2773 20.0508 10.707 21.1523C9.13672 22.2539 7.44922 23.2266 5.64453 24.0703C5.45703 24.0234 5.28125 24.0117 5.11719 24.0352C4.95312 24.0586 4.78906 24.0938 4.625 24.1406C4.48438 24.2109 4.32031 24.2695 4.13281 24.3164C3.96875 24.3633 3.80469 24.3867 3.64062 24.3867C3.17188 24.3867 2.71484 24.293 2.26953 24.1055C1.84766 23.918 1.47266 23.6719 1.14453 23.3672C0.816406 23.0391 0.558594 22.6641 0.371094 22.2422C0.183594 21.8203 0.0898438 21.375 0.0898438 20.9062C0.0898438 19.5 0.382812 18.1406 0.96875 16.8281C1.57812 15.4922 2.31641 14.2266 3.18359 13.0312C4.07422 11.8125 5.04688 10.6641 6.10156 9.58594C7.15625 8.48438 8.12891 7.47656 9.01953 6.5625L8.07031 5.92969L8.38672 5.64844C8.90234 5.67188 9.37109 5.625 9.79297 5.50781C10.2148 5.36719 10.6133 5.21484 10.9883 5.05078C11.3633 4.88672 11.7383 4.73438 12.1133 4.59375C12.5117 4.45312 12.9453 4.38281 13.4141 4.38281C13.5547 4.38281 13.6953 4.38281 13.8359 4.38281C13.9766 4.38281 14.0938 4.40625 14.1875 4.45312C14.3047 4.47656 14.3867 4.53516 14.4336 4.62891C14.5039 4.72266 14.5391 4.85156 14.5391 5.01562C14.5391 5.08594 14.3516 5.26172 13.9766 5.54297C13.6016 5.80078 13.0977 6.15234 12.4648 6.59766C11.8555 7.01953 11.1523 7.52344 10.3555 8.10938C9.55859 8.69531 8.73828 9.35156 7.89453 10.0781C7.07422 10.8047 6.26562 11.5898 5.46875 12.4336C4.69531 13.2539 3.99219 14.1211 3.35938 15.0352C2.72656 15.9258 2.22266 16.8633 1.84766 17.8477C1.47266 18.832 1.28516 19.8281 1.28516 20.8359C1.28516 21.2344 1.36719 21.5625 1.53125 21.8203C1.69531 22.0547 1.89453 22.2539 2.12891 22.418C2.38672 22.582 2.66797 22.6992 2.97266 22.7695C3.30078 22.8164 3.61719 22.8398 3.92188 22.8398C4.95312 22.8398 6.03125 22.5703 7.15625 22.0312C8.28125 21.4922 9.37109 20.8359 10.4258 20.0625C11.4805 19.2891 12.4648 18.457 13.3789 17.5664C14.3164 16.6758 15.1133 15.8672 15.7695 15.1406C15.9102 15 15.9922 14.8594 16.0156 14.7188C16.0625 14.5781 16.0859 14.4141 16.0859 14.2266C16.0859 14.1797 16.0742 14.1211 16.0508 14.0508C16.0508 13.9805 16.0508 13.9453 16.0508 13.9453C15.3477 14.0859 14.6914 14.25 14.082 14.4375C13.4727 14.6016 12.8633 14.7891 12.2539 15C11.668 15.1875 11.082 15.3984 10.4961 15.6328C9.93359 15.8438 9.33594 16.0898 8.70312 16.3711C8.67969 16.3711 8.65625 16.3711 8.63281 16.3711C8.63281 16.3945 8.59766 16.4062 8.52734 16.4062C8.33984 16.4062 8.21094 16.3359 8.14062 16.1953C8.07031 16.0547 8.03516 15.9141 8.03516 15.7734C8.03516 15.5156 8.22266 15.2578 8.59766 15C8.99609 14.7188 9.45312 14.4727 9.96875 14.2617C10.4844 14.0273 11 13.8281 11.5156 13.6641C12.0312 13.5 12.418 13.3828 12.6758 13.3125C12.7461 13.2891 12.9453 13.2305 13.2734 13.1367C13.625 13.043 13.9883 12.9492 14.3633 12.8555C14.7383 12.7383 15.0898 12.6445 15.418 12.5742C15.7461 12.4805 15.957 12.4219 16.0508 12.3984C16.2383 12.3516 16.4023 12.2812 16.543 12.1875C16.6836 12.0703 16.8242 11.9648 16.9648 11.8711C17.1055 11.7539 17.2461 11.6602 17.3867 11.5898C17.5273 11.4961 17.7031 11.4492 17.9141 11.4492C18.0312 11.4492 18.1367 11.4609 18.2305 11.4844C18.3477 11.5078 18.4414 11.6016 18.5117 11.7656H24.0312C24.0547 11.7656 24.1133 11.7773 24.207 11.8008C24.3008 11.8242 24.3945 11.8594 24.4883 11.9062C24.6055 11.9297 24.6992 11.9648 24.7695 12.0117C24.8398 12.0352 24.8984 12.0469 24.9453 12.0469C24.9453 12.0703 24.957 12.0938 24.9805 12.1172C24.9805 12.1406 24.9805 12.1641 24.9805 12.1875C24.9805 12.1875 24.9805 12.1992 24.9805 12.2227C24.9805 12.2461 24.9805 12.2695 24.9805 12.293C24.9805 12.293 24.9805 12.3047 24.9805 12.3281C24.957 12.3516 24.9453 12.375 24.9453 12.3984C24.9219 12.4453 24.875 12.5039 24.8047 12.5742C24.7344 12.6445 24.6875 12.6797 24.6641 12.6797C24.4766 12.6797 24.1602 12.7031 23.7148 12.75C23.293 12.7734 22.8359 12.8086 22.3438 12.8555C21.8516 12.8789 21.3828 12.9023 20.9375 12.9258C20.5156 12.9492 20.2227 12.9727 20.0586 12.9961C19.543 13.0664 19.1445 13.1719 18.8633 13.3125C18.582 13.4531 18.3594 13.7578 18.1953 14.2266C17.9375 15.0938 17.7383 15.9023 17.5977 16.6523C17.457 17.3789 17.3516 18.0938 17.2812 18.7969C17.2344 19.5 17.2109 20.2266 17.2109 20.9766C17.2109 21.7266 17.2109 22.5469 17.2109 23.4375C17.2109 23.5781 17.2109 23.8594 17.2109 24.2812C17.2109 24.7031 17.2109 25.1367 17.2109 25.582C17.2344 26.0508 17.2461 26.4844 17.2461 26.8828C17.2695 27.2812 17.2812 27.5625 17.2812 27.7266C17.3047 27.8672 17.3633 28.1133 17.457 28.4648C17.5508 28.8164 17.6445 29.1797 17.7383 29.5547C17.8555 29.9531 17.9492 30.3281 18.0195 30.6797C18.0898 31.0312 18.1484 31.2773 18.1953 31.418C18.2188 31.4648 18.2305 31.582 18.2305 31.7695C18.2539 31.9805 18.2656 32.1211 18.2656 32.1914C17.8906 32.1914 17.5625 32.0508 17.2812 31.7695C17.0234 31.4883 16.8008 31.125 16.6133 30.6797C16.4258 30.2344 16.2734 29.7422 16.1562 29.2031C16.0625 28.6641 15.9805 28.1367 15.9102 27.6211C15.8633 27.1055 15.8281 26.6367 15.8047 26.2148C15.7812 25.793 15.7695 25.4766 15.7695 25.2656C15.7461 24.9844 15.7227 24.5039 15.6992 23.8242C15.6992 23.1211 15.6992 22.3828 15.6992 21.6094C15.6992 20.8125 15.6992 20.0742 15.6992 19.3945C15.7227 18.6914 15.7461 18.1992 15.7695 17.918L15.4531 17.6016Z" class="QtScAlzh_0"></path>
<path d="M22.625 16.0547C22.625 15.5156 22.7656 15.0703 23.0469 14.7188C23.3516 14.3438 23.7148 14.0508 24.1367 13.8398C24.5586 13.6289 25.0156 13.4766 25.5078 13.3828C26 13.2891 26.457 13.2422 26.8789 13.2422C26.9727 13.2422 27.1367 13.2891 27.3711 13.3828C27.6055 13.4766 27.7578 13.5469 27.8281 13.5938V13.6289C27.8281 13.6523 27.8281 13.6758 27.8281 13.6992C27.8281 13.9102 27.7344 14.0625 27.5469 14.1562C27.3828 14.25 27.1602 14.332 26.8789 14.4023C26.5977 14.4492 26.293 14.4961 25.9648 14.543C25.6602 14.5898 25.3672 14.6719 25.0859 14.7891C24.8047 14.9062 24.5703 15.0703 24.3828 15.2812C24.2188 15.4922 24.1367 15.7852 24.1367 16.1602C24.1367 16.6758 24.3828 17.2031 24.875 17.7422C25.3672 18.2812 25.9883 18.7852 26.7383 19.2539C27.5117 19.7227 28.3672 20.168 29.3047 20.5898C30.2422 20.9883 31.1562 21.3398 32.0469 21.6445C32.9375 21.9258 33.7461 22.1484 34.4727 22.3125C35.1992 22.4531 35.75 22.5117 36.125 22.4883C36.1953 22.4883 36.3125 22.4648 36.4766 22.418C36.6641 22.3477 36.8516 22.2773 37.0391 22.207C37.2266 22.1367 37.4023 22.0664 37.5664 21.9961C37.7539 21.9258 37.8828 21.8789 37.9531 21.8555C37.9531 21.8086 37.9531 21.7148 37.9531 21.5742C37.9766 21.4102 37.9883 21.3047 37.9883 21.2578C37.9883 20.9766 37.9531 20.7422 37.8828 20.5547C37.8125 20.3438 37.707 20.1562 37.5664 19.9922C37.4492 19.8047 37.2852 19.6289 37.0742 19.4648C36.8867 19.2773 36.6641 19.0547 36.4062 18.7969C36.1953 18.5859 35.8789 18.2695 35.457 17.8477C35.0352 17.4258 34.5547 16.957 34.0156 16.4414C33.4766 15.9023 32.9023 15.3516 32.293 14.7891C31.707 14.2031 31.1328 13.6523 30.5703 13.1367C30.0078 12.5977 29.5156 12.1289 29.0938 11.7305C28.6719 11.3086 28.3555 10.9922 28.1445 10.7812C27.4648 9.91406 26.9258 9.05859 26.5273 8.21484C26.1523 7.37109 25.9648 6.39844 25.9648 5.29688C25.9648 4.3125 26.1523 3.42188 26.5273 2.625C26.9258 1.82812 27.5703 1.17188 28.4609 0.65625C28.5078 0.65625 28.6016 0.65625 28.7422 0.65625C28.8828 0.65625 29.0352 0.65625 29.1992 0.65625C29.3633 0.65625 29.5156 0.65625 29.6562 0.65625C29.8203 0.65625 29.9258 0.65625 29.9727 0.65625C30.6289 0.65625 31.3203 0.785156 32.0469 1.04297C32.7734 1.27734 33.4414 1.61719 34.0508 2.0625C34.6602 2.50781 35.1641 3.04688 35.5625 3.67969C35.9609 4.3125 36.1602 5.00391 36.1602 5.75391C36.1602 5.84766 36.1484 6 36.125 6.21094C36.1016 6.39844 35.9961 6.49219 35.8086 6.49219C35.457 6.49219 35.1406 6.38672 34.8594 6.17578C34.6016 5.94141 34.3438 5.64844 34.0859 5.29688C33.8516 4.94531 33.6172 4.58203 33.3828 4.20703C33.1484 3.80859 32.8789 3.43359 32.5742 3.08203C32.293 2.73047 31.9531 2.44922 31.5547 2.23828C31.1797 2.00391 30.7461 1.88672 30.2539 1.88672C29.8789 1.88672 29.5039 2.00391 29.1289 2.23828C28.7539 2.44922 28.4258 2.71875 28.1445 3.04688C27.8633 3.375 27.6289 3.73828 27.4414 4.13672C27.2773 4.53516 27.1953 4.91016 27.1953 5.26172C27.1953 5.77734 27.2656 6.31641 27.4062 6.87891C27.5469 7.41797 27.7461 7.94531 28.0039 8.46094C28.2617 8.95312 28.5547 9.43359 28.8828 9.90234C29.2344 10.3477 29.5977 10.7578 29.9727 11.1328L38.2695 19.1133C38.6211 19.418 38.9141 19.8281 39.1484 20.3438C39.4062 20.8594 39.5352 21.3516 39.5352 21.8203C39.5352 22.1953 39.4531 22.5234 39.2891 22.8047C39.125 23.0859 38.9141 23.3203 38.6562 23.5078C38.3984 23.6719 38.0938 23.8008 37.7422 23.8945C37.4141 23.9648 37.0742 24 36.7227 24H36.4062C36.2188 23.9766 35.9258 23.918 35.5273 23.8242C35.1289 23.707 34.7188 23.6016 34.2969 23.5078C33.875 23.4141 33.4766 23.332 33.1016 23.2617C32.75 23.168 32.5273 23.1094 32.4336 23.0859C32.0586 22.9688 31.5547 22.793 30.9219 22.5586C30.3125 22.3008 29.6445 22.0078 28.918 21.6797C28.1914 21.3281 27.4531 20.9414 26.7031 20.5195C25.9531 20.0742 25.2734 19.6055 24.6641 19.1133C24.0781 18.6211 23.5859 18.1172 23.1875 17.6016C22.8125 17.0625 22.625 16.5469 22.625 16.0547Z" class="QtScAlzh_1"></path>
</mask>
<path d="M15.4531 17.6016C13.8594 18.8672 12.2773 20.0508 10.707 21.1523C9.13672 22.2539 7.44922 23.2266 5.64453 24.0703C5.45703 24.0234 5.28125 24.0117 5.11719 24.0352C4.95312 24.0586 4.78906 24.0938 4.625 24.1406C4.48438 24.2109 4.32031 24.2695 4.13281 24.3164C3.96875 24.3633 3.80469 24.3867 3.64062 24.3867C3.17188 24.3867 2.71484 24.293 2.26953 24.1055C1.84766 23.918 1.47266 23.6719 1.14453 23.3672C0.816406 23.0391 0.558594 22.6641 0.371094 22.2422C0.183594 21.8203 0.0898438 21.375 0.0898438 20.9062C0.0898438 19.5 0.382812 18.1406 0.96875 16.8281C1.57812 15.4922 2.31641 14.2266 3.18359 13.0312C4.07422 11.8125 5.04688 10.6641 6.10156 9.58594C7.15625 8.48438 8.12891 7.47656 9.01953 6.5625L8.07031 5.92969L8.38672 5.64844C8.90234 5.67188 9.37109 5.625 9.79297 5.50781C10.2148 5.36719 10.6133 5.21484 10.9883 5.05078C11.3633 4.88672 11.7383 4.73438 12.1133 4.59375C12.5117 4.45312 12.9453 4.38281 13.4141 4.38281C13.5547 4.38281 13.6953 4.38281 13.8359 4.38281C13.9766 4.38281 14.0938 4.40625 14.1875 4.45312C14.3047 4.47656 14.3867 4.53516 14.4336 4.62891C14.5039 4.72266 14.5391 4.85156 14.5391 5.01562C14.5391 5.08594 14.3516 5.26172 13.9766 5.54297C13.6016 5.80078 13.0977 6.15234 12.4648 6.59766C11.8555 7.01953 11.1523 7.52344 10.3555 8.10938C9.55859 8.69531 8.73828 9.35156 7.89453 10.0781C7.07422 10.8047 6.26562 11.5898 5.46875 12.4336C4.69531 13.2539 3.99219 14.1211 3.35938 15.0352C2.72656 15.9258 2.22266 16.8633 1.84766 17.8477C1.47266 18.832 1.28516 19.8281 1.28516 20.8359C1.28516 21.2344 1.36719 21.5625 1.53125 21.8203C1.69531 22.0547 1.89453 22.2539 2.12891 22.418C2.38672 22.582 2.66797 22.6992 2.97266 22.7695C3.30078 22.8164 3.61719 22.8398 3.92188 22.8398C4.95312 22.8398 6.03125 22.5703 7.15625 22.0312C8.28125 21.4922 9.37109 20.8359 10.4258 20.0625C11.4805 19.2891 12.4648 18.457 13.3789 17.5664C14.3164 16.6758 15.1133 15.8672 15.7695 15.1406C15.9102 15 15.9922 14.8594 16.0156 14.7188C16.0625 14.5781 16.0859 14.4141 16.0859 14.2266C16.0859 14.1797 16.0742 14.1211 16.0508 14.0508C16.0508 13.9805 16.0508 13.9453 16.0508 13.9453C15.3477 14.0859 14.6914 14.25 14.082 14.4375C13.4727 14.6016 12.8633 14.7891 12.2539 15C11.668 15.1875 11.082 15.3984 10.4961 15.6328C9.93359 15.8438 9.33594 16.0898 8.70312 16.3711C8.67969 16.3711 8.65625 16.3711 8.63281 16.3711C8.63281 16.3945 8.59766 16.4062 8.52734 16.4062C8.33984 16.4062 8.21094 16.3359 8.14062 16.1953C8.07031 16.0547 8.03516 15.9141 8.03516 15.7734C8.03516 15.5156 8.22266 15.2578 8.59766 15C8.99609 14.7188 9.45312 14.4727 9.96875 14.2617C10.4844 14.0273 11 13.8281 11.5156 13.6641C12.0312 13.5 12.418 13.3828 12.6758 13.3125C12.7461 13.2891 12.9453 13.2305 13.2734 13.1367C13.625 13.043 13.9883 12.9492 14.3633 12.8555C14.7383 12.7383 15.0898 12.6445 15.418 12.5742C15.7461 12.4805 15.957 12.4219 16.0508 12.3984C16.2383 12.3516 16.4023 12.2812 16.543 12.1875C16.6836 12.0703 16.8242 11.9648 16.9648 11.8711C17.1055 11.7539 17.2461 11.6602 17.3867 11.5898C17.5273 11.4961 17.7031 11.4492 17.9141 11.4492C18.0312 11.4492 18.1367 11.4609 18.2305 11.4844C18.3477 11.5078 18.4414 11.6016 18.5117 11.7656H24.0312C24.0547 11.7656 24.1133 11.7773 24.207 11.8008C24.3008 11.8242 24.3945 11.8594 24.4883 11.9062C24.6055 11.9297 24.6992 11.9648 24.7695 12.0117C24.8398 12.0352 24.8984 12.0469 24.9453 12.0469C24.9453 12.0703 24.957 12.0938 24.9805 12.1172C24.9805 12.1406 24.9805 12.1641 24.9805 12.1875C24.9805 12.1875 24.9805 12.1992 24.9805 12.2227C24.9805 12.2461 24.9805 12.2695 24.9805 12.293C24.9805 12.293 24.9805 12.3047 24.9805 12.3281C24.957 12.3516 24.9453 12.375 24.9453 12.3984C24.9219 12.4453 24.875 12.5039 24.8047 12.5742C24.7344 12.6445 24.6875 12.6797 24.6641 12.6797C24.4766 12.6797 24.1602 12.7031 23.7148 12.75C23.293 12.7734 22.8359 12.8086 22.3438 12.8555C21.8516 12.8789 21.3828 12.9023 20.9375 12.9258C20.5156 12.9492 20.2227 12.9727 20.0586 12.9961C19.543 13.0664 19.1445 13.1719 18.8633 13.3125C18.582 13.4531 18.3594 13.7578 18.1953 14.2266C17.9375 15.0938 17.7383 15.9023 17.5977 16.6523C17.457 17.3789 17.3516 18.0938 17.2812 18.7969C17.2344 19.5 17.2109 20.2266 17.2109 20.9766C17.2109 21.7266 17.2109 22.5469 17.2109 23.4375C17.2109 23.5781 17.2109 23.8594 17.2109 24.2812C17.2109 24.7031 17.2109 25.1367 17.2109 25.582C17.2344 26.0508 17.2461 26.4844 17.2461 26.8828C17.2695 27.2812 17.2812 27.5625 17.2812 27.7266C17.3047 27.8672 17.3633 28.1133 17.457 28.4648C17.5508 28.8164 17.6445 29.1797 17.7383 29.5547C17.8555 29.9531 17.9492 30.3281 18.0195 30.6797C18.0898 31.0312 18.1484 31.2773 18.1953 31.418C18.2188 31.4648 18.2305 31.582 18.2305 31.7695C18.2539 31.9805 18.2656 32.1211 18.2656 32.1914C17.8906 32.1914 17.5625 32.0508 17.2812 31.7695C17.0234 31.4883 16.8008 31.125 16.6133 30.6797C16.4258 30.2344 16.2734 29.7422 16.1562 29.2031C16.0625 28.6641 15.9805 28.1367 15.9102 27.6211C15.8633 27.1055 15.8281 26.6367 15.8047 26.2148C15.7812 25.793 15.7695 25.4766 15.7695 25.2656C15.7461 24.9844 15.7227 24.5039 15.6992 23.8242C15.6992 23.1211 15.6992 22.3828 15.6992 21.6094C15.6992 20.8125 15.6992 20.0742 15.6992 19.3945C15.7227 18.6914 15.7461 18.1992 15.7695 17.918L15.4531 17.6016Z" stroke="black" stroke-width="2" mask="url(#path-1-inside-1)" class="QtScAlzh_2"></path>
<path d="M22.625 16.0547C22.625 15.5156 22.7656 15.0703 23.0469 14.7188C23.3516 14.3438 23.7148 14.0508 24.1367 13.8398C24.5586 13.6289 25.0156 13.4766 25.5078 13.3828C26 13.2891 26.457 13.2422 26.8789 13.2422C26.9727 13.2422 27.1367 13.2891 27.3711 13.3828C27.6055 13.4766 27.7578 13.5469 27.8281 13.5938V13.6289C27.8281 13.6523 27.8281 13.6758 27.8281 13.6992C27.8281 13.9102 27.7344 14.0625 27.5469 14.1562C27.3828 14.25 27.1602 14.332 26.8789 14.4023C26.5977 14.4492 26.293 14.4961 25.9648 14.543C25.6602 14.5898 25.3672 14.6719 25.0859 14.7891C24.8047 14.9062 24.5703 15.0703 24.3828 15.2812C24.2188 15.4922 24.1367 15.7852 24.1367 16.1602C24.1367 16.6758 24.3828 17.2031 24.875 17.7422C25.3672 18.2812 25.9883 18.7852 26.7383 19.2539C27.5117 19.7227 28.3672 20.168 29.3047 20.5898C30.2422 20.9883 31.1562 21.3398 32.0469 21.6445C32.9375 21.9258 33.7461 22.1484 34.4727 22.3125C35.1992 22.4531 35.75 22.5117 36.125 22.4883C36.1953 22.4883 36.3125 22.4648 36.4766 22.418C36.6641 22.3477 36.8516 22.2773 37.0391 22.207C37.2266 22.1367 37.4023 22.0664 37.5664 21.9961C37.7539 21.9258 37.8828 21.8789 37.9531 21.8555C37.9531 21.8086 37.9531 21.7148 37.9531 21.5742C37.9766 21.4102 37.9883 21.3047 37.9883 21.2578C37.9883 20.9766 37.9531 20.7422 37.8828 20.5547C37.8125 20.3438 37.707 20.1562 37.5664 19.9922C37.4492 19.8047 37.2852 19.6289 37.0742 19.4648C36.8867 19.2773 36.6641 19.0547 36.4062 18.7969C36.1953 18.5859 35.8789 18.2695 35.457 17.8477C35.0352 17.4258 34.5547 16.957 34.0156 16.4414C33.4766 15.9023 32.9023 15.3516 32.293 14.7891C31.707 14.2031 31.1328 13.6523 30.5703 13.1367C30.0078 12.5977 29.5156 12.1289 29.0938 11.7305C28.6719 11.3086 28.3555 10.9922 28.1445 10.7812C27.4648 9.91406 26.9258 9.05859 26.5273 8.21484C26.1523 7.37109 25.9648 6.39844 25.9648 5.29688C25.9648 4.3125 26.1523 3.42188 26.5273 2.625C26.9258 1.82812 27.5703 1.17188 28.4609 0.65625C28.5078 0.65625 28.6016 0.65625 28.7422 0.65625C28.8828 0.65625 29.0352 0.65625 29.1992 0.65625C29.3633 0.65625 29.5156 0.65625 29.6562 0.65625C29.8203 0.65625 29.9258 0.65625 29.9727 0.65625C30.6289 0.65625 31.3203 0.785156 32.0469 1.04297C32.7734 1.27734 33.4414 1.61719 34.0508 2.0625C34.6602 2.50781 35.1641 3.04688 35.5625 3.67969C35.9609 4.3125 36.1602 5.00391 36.1602 5.75391C36.1602 5.84766 36.1484 6 36.125 6.21094C36.1016 6.39844 35.9961 6.49219 35.8086 6.49219C35.457 6.49219 35.1406 6.38672 34.8594 6.17578C34.6016 5.94141 34.3438 5.64844 34.0859 5.29688C33.8516 4.94531 33.6172 4.58203 33.3828 4.20703C33.1484 3.80859 32.8789 3.43359 32.5742 3.08203C32.293 2.73047 31.9531 2.44922 31.5547 2.23828C31.1797 2.00391 30.7461 1.88672 30.2539 1.88672C29.8789 1.88672 29.5039 2.00391 29.1289 2.23828C28.7539 2.44922 28.4258 2.71875 28.1445 3.04688C27.8633 3.375 27.6289 3.73828 27.4414 4.13672C27.2773 4.53516 27.1953 4.91016 27.1953 5.26172C27.1953 5.77734 27.2656 6.31641 27.4062 6.87891C27.5469 7.41797 27.7461 7.94531 28.0039 8.46094C28.2617 8.95312 28.5547 9.43359 28.8828 9.90234C29.2344 10.3477 29.5977 10.7578 29.9727 11.1328L38.2695 19.1133C38.6211 19.418 38.9141 19.8281 39.1484 20.3438C39.4062 20.8594 39.5352 21.3516 39.5352 21.8203C39.5352 22.1953 39.4531 22.5234 39.2891 22.8047C39.125 23.0859 38.9141 23.3203 38.6562 23.5078C38.3984 23.6719 38.0938 23.8008 37.7422 23.8945C37.4141 23.9648 37.0742 24 36.7227 24H36.4062C36.2188 23.9766 35.9258 23.918 35.5273 23.8242C35.1289 23.707 34.7188 23.6016 34.2969 23.5078C33.875 23.4141 33.4766 23.332 33.1016 23.2617C32.75 23.168 32.5273 23.1094 32.4336 23.0859C32.0586 22.9688 31.5547 22.793 30.9219 22.5586C30.3125 22.3008 29.6445 22.0078 28.918 21.6797C28.1914 21.3281 27.4531 20.9414 26.7031 20.5195C25.9531 20.0742 25.2734 19.6055 24.6641 19.1133C24.0781 18.6211 23.5859 18.1172 23.1875 17.6016C22.8125 17.0625 22.625 16.5469 22.625 16.0547Z" stroke="black" stroke-width="2" mask="url(#path-1-inside-1)" class="QtScAlzh_3"></path>
<style data-made-with="vivus-instant">.QtScAlzh_0{stroke-dasharray:155 157;stroke-dashoffset:156;animation:QtScAlzh_draw 2000ms linear 0ms forwards;}.QtScAlzh_1{stroke-dasharray:121 123;stroke-dashoffset:122;animation:QtScAlzh_draw 2000ms linear 333ms forwards;}.QtScAlzh_2{stroke-dasharray:155 157;stroke-dashoffset:156;animation:QtScAlzh_draw 2000ms linear 666ms forwards;}.QtScAlzh_3{stroke-dasharray:121 123;stroke-dashoffset:122;animation:QtScAlzh_draw 2000ms linear 1000ms forwards;}@keyframes QtScAlzh_draw{100%{stroke-dashoffset:0;}}@keyframes QtScAlzh_fade{0%{stroke-opacity:1;}94.44444444444444%{stroke-opacity:1;}100%{stroke-opacity:0;}}</style></svg>
